<?xml version="1.0" encoding="UTF-8" standalone="no"?>
<!DOCTYPE svg PUBLIC "-//W3C//DTD SVG 1.1//EN" "http://www.w3.org/Graphics/SVG/1.1/DTD/svg11.dtd">
<svg xmlns="http://www.w3.org/2000/svg" version="1.1" viewBox="0.00 0.00 1024.00 1024.00">
<g stroke-width="5.00" fill="none" stroke-linecap="butt">
<path stroke="#2f363e" vector-effect="non-scaling-stroke" d="
  M 640.71 479.70
  L 604.79 529.10
  A 1.20 1.18 46.6 0 0 604.76 530.45
  C 615.19 546.54 617.62 571.99 615.66 590.05
  Q 615.40 592.49 617.20 590.82
  Q 633.77 575.54 647.71 557.45
  Q 678.78 517.17 708.19 475.66
  Q 708.49 475.24 708.25 474.78
  Q 708.05 474.38 707.76 474.49"
/>
<path stroke="#a0a4a9" vector-effect="non-scaling-stroke" d="
  M 707.76 474.49
  C 733.28 459.88 740.31 428.52 729.16 402.62
  Q 727.39 398.50 723.82 393.99
  Q 703.46 368.27 682.43 343.09
  C 666.61 324.17 644.36 317.98 621.00 317.99
  C 556.94 318.03 492.83 317.49 428.77 317.99
  A 0.32 0.32 0.0 0 0 428.66 318.60
  C 441.04 323.31 453.11 333.88 460.97 343.79
  Q 514.39 411.16 568.92 478.43
  A 2.70 2.68 70.4 0 0 571.01 479.43
  L 640.71 479.70"
/>
<path stroke="#8b8f92" vector-effect="non-scaling-stroke" d="
  M 707.76 474.49
  Q 696.01 480.12 683.75 480.25
  Q 666.93 480.42 640.71 479.70"
/>
<path stroke="#5c92a3" vector-effect="non-scaling-stroke" d="
  M 439.60 634.07
  Q 454.48 654.75 469.48 674.53
  C 477.36 684.92 485.28 694.28 497.07 698.96
  C 512.91 705.25 532.84 701.58 543.69 687.44
  Q 551.13 677.75 561.51 662.20
  C 569.29 650.56 575.19 638.34 575.17 624.00
  C 575.16 607.90 570.85 590.56 563.21 576.70"
/>
<path stroke="#a0a4a9" vector-effect="non-scaling-stroke" d="
  M 563.21 576.70
  Q 557.43 563.55 551.44 556.06
  C 496.43 487.34 441.86 418.24 386.11 350.11
  C 373.13 334.25 356.51 327.33 340.58 345.33
  Q 320.23 368.31 301.05 392.32
  Q 288.45 408.10 289.30 426.94
  C 290.47 452.74 307.92 466.81 322.52 485.34
  C 361.56 534.89 399.93 585.04 439.60 634.07"
/>
<path stroke="#b9ebf7" vector-effect="non-scaling-stroke" d="
  M 563.21 576.70
  Q 543.33 599.88 524.31 622.57
  C 516.28 632.15 505.33 646.83 492.00 648.28
  C 475.19 650.10 455.65 641.57 439.60 634.07"
/>
<path stroke="#a0a4a9" vector-effect="non-scaling-stroke" d="
  M 601.76 421.50
  L 667.66 421.50
  A 1.49 1.49 0.0 0 0 668.94 419.26
  Q 668.25 418.08 667.30 416.92
  Q 655.57 402.57 643.48 388.52
  Q 640.27 384.79 636.25 381.99
  C 632.79 379.57 631.71 376.76 626.80 376.76
  Q 595.42 376.74 564.12 376.75
  A 0.46 0.46 0.0 0 0 563.77 377.51
  L 600.27 420.81
  A 1.96 1.93 -19.8 0 0 601.76 421.50"
/>
</g>
<path fill="#434a54" d="
  M 0.00 0.00
  L 1024.00 0.00
  L 1024.00 1024.00
  L 0.00 1024.00
  L 0.00 0.00
  Z
  M 640.71 479.70
  L 604.79 529.10
  A 1.20 1.18 46.6 0 0 604.76 530.45
  C 615.19 546.54 617.62 571.99 615.66 590.05
  Q 615.40 592.49 617.20 590.82
  Q 633.77 575.54 647.71 557.45
  Q 678.78 517.17 708.19 475.66
  Q 708.49 475.24 708.25 474.78
  Q 708.05 474.38 707.76 474.49
  C 733.28 459.88 740.31 428.52 729.16 402.62
  Q 727.39 398.50 723.82 393.99
  Q 703.46 368.27 682.43 343.09
  C 666.61 324.17 644.36 317.98 621.00 317.99
  C 556.94 318.03 492.83 317.49 428.77 317.99
  A 0.32 0.32 0.0 0 0 428.66 318.60
  C 441.04 323.31 453.11 333.88 460.97 343.79
  Q 514.39 411.16 568.92 478.43
  A 2.70 2.68 70.4 0 0 571.01 479.43
  L 640.71 479.70
  Z
  M 439.60 634.07
  Q 454.48 654.75 469.48 674.53
  C 477.36 684.92 485.28 694.28 497.07 698.96
  C 512.91 705.25 532.84 701.58 543.69 687.44
  Q 551.13 677.75 561.51 662.20
  C 569.29 650.56 575.19 638.34 575.17 624.00
  C 575.16 607.90 570.85 590.56 563.21 576.70
  Q 557.43 563.55 551.44 556.06
  C 496.43 487.34 441.86 418.24 386.11 350.11
  C 373.13 334.25 356.51 327.33 340.58 345.33
  Q 320.23 368.31 301.05 392.32
  Q 288.45 408.10 289.30 426.94
  C 290.47 452.74 307.92 466.81 322.52 485.34
  C 361.56 534.89 399.93 585.04 439.60 634.07
  Z"
/>
<path fill="#fcfdfd" d="
  M 707.76 474.49
  Q 696.01 480.12 683.75 480.25
  Q 666.93 480.42 640.71 479.70
  L 571.01 479.43
  A 2.70 2.68 70.4 0 1 568.92 478.43
  Q 514.39 411.16 460.97 343.79
  C 453.11 333.88 441.04 323.31 428.66 318.60
  A 0.32 0.32 0.0 0 1 428.77 317.99
  C 492.83 317.49 556.94 318.03 621.00 317.99
  C 644.36 317.98 666.61 324.17 682.43 343.09
  Q 703.46 368.27 723.82 393.99
  Q 727.39 398.50 729.16 402.62
  C 740.31 428.52 733.28 459.88 707.76 474.49
  Z
  M 601.76 421.50
  L 667.66 421.50
  A 1.49 1.49 0.0 0 0 668.94 419.26
  Q 668.25 418.08 667.30 416.92
  Q 655.57 402.57 643.48 388.52
  Q 640.27 384.79 636.25 381.99
  C 632.79 379.57 631.71 376.76 626.80 376.76
  Q 595.42 376.74 564.12 376.75
  A 0.46 0.46 0.0 0 0 563.77 377.51
  L 600.27 420.81
  A 1.96 1.93 -19.8 0 0 601.76 421.50
  Z"
/>
<path fill="#fcfdfd" d="
  M 563.21 576.70
  Q 543.33 599.88 524.31 622.57
  C 516.28 632.15 505.33 646.83 492.00 648.28
  C 475.19 650.10 455.65 641.57 439.60 634.07
  C 399.93 585.04 361.56 534.89 322.52 485.34
  C 307.92 466.81 290.47 452.74 289.30 426.94
  Q 288.45 408.10 301.05 392.32
  Q 320.23 368.31 340.58 345.33
  C 356.51 327.33 373.13 334.25 386.11 350.11
  C 441.86 418.24 496.43 487.34 551.44 556.06
  Q 557.43 563.55 563.21 576.70
  Z"
/>
<path fill="#434a54" d="
  M 601.76 421.50
  A 1.96 1.93 -19.8 0 1 600.27 420.81
  L 563.77 377.51
  A 0.46 0.46 0.0 0 1 564.12 376.75
  Q 595.42 376.74 626.80 376.76
  C 631.71 376.76 632.79 379.57 636.25 381.99
  Q 640.27 384.79 643.48 388.52
  Q 655.57 402.57 667.30 416.92
  Q 668.25 418.08 668.94 419.26
  A 1.49 1.49 0.0 0 1 667.66 421.50
  L 601.76 421.50
  Z"
/>
<path fill="#1a2127" d="
  M 707.76 474.49
  Q 708.05 474.38 708.25 474.78
  Q 708.49 475.24 708.19 475.66
  Q 678.78 517.17 647.71 557.45
  Q 633.77 575.54 617.20 590.82
  Q 615.40 592.49 615.66 590.05
  C 617.62 571.99 615.19 546.54 604.76 530.45
  A 1.20 1.18 46.6 0 1 604.79 529.10
  L 640.71 479.70
  Q 666.93 480.42 683.75 480.25
  Q 696.01 480.12 707.76 474.49
  Z"
/>
<path fill="#75d9f1" d="
  M 563.21 576.70
  C 570.85 590.56 575.16 607.90 575.17 624.00
  C 575.19 638.34 569.29 650.56 561.51 662.20
  Q 551.13 677.75 543.69 687.44
  C 532.84 701.58 512.91 705.25 497.07 698.96
  C 485.28 694.28 477.36 684.92 469.48 674.53
  Q 454.48 654.75 439.60 634.07
  C 455.65 641.57 475.19 650.10 492.00 648.28
  C 505.33 646.83 516.28 632.15 524.31 622.57
  Q 543.33 599.88 563.21 576.70
  Z"
/>
</svg>
